<?xml version="1.0" encoding="utf-8"?>
<!-- Generator: Adobe Illustrator 16.0.0, SVG Export Plug-In . SVG Version: 6.00 Build 0)  -->
<!DOCTYPE svg PUBLIC "-//W3C//DTD SVG 1.1//EN" "http://www.w3.org/Graphics/SVG/1.1/DTD/svg11.dtd">
<svg version="1.1" id="Layer_1" xmlns="http://www.w3.org/2000/svg" xmlns:xlink="http://www.w3.org/1999/xlink" x="0px" y="0px"
	 width="400px" height="54.867px" viewBox="0 0 400 54.867" enable-background="new 0 0 400 54.867" xml:space="preserve">
<g>
	<path fill="#FFFFFF" d="M363.614,25.073c-1.472,3.696-2.883,6.893-4.021,10.186c-1.963,5.688-3.727,11.441-5.655,17.142
		c-0.207,0.606-0.878,1.299-1.482,1.49c-3.711,1.18-3.893,1.073-5.258-2.617c-4.572-12.338-9.072-24.702-13.717-37.013
		c-1.371-3.633-3.138-7.115-4.72-10.67c-0.28-0.629-0.553-1.262-0.959-2.191c2.373,0,4.439-0.105,6.479,0.074
		c0.502,0.045,1.119,0.951,1.352,1.582c3.857,10.525,7.662,21.074,11.484,31.613c1.389,3.826,2.797,7.644,4.342,11.86
		c0.398-0.809,0.637-1.219,0.812-1.653c2.518-6.254,4.965-12.539,7.561-18.76c1.701-4.074,1.779-8.031-0.113-12.041
		c-1.662-3.518-3.252-7.068-4.869-10.605c-0.264-0.574-0.5-1.16-0.889-2.066c2.365,0,4.473-0.086,6.566,0.066
		c0.451,0.033,1.026,0.852,1.235,1.424c4.996,13.699,9.951,27.415,14.916,41.125c0.259,0.713,0.543,1.418,1.019,2.649
		c0.483-1.101,0.776-1.703,1.018-2.328c5.349-13.914,10.678-27.836,16.074-41.732c0.211-0.537,1.021-1.064,1.629-1.172
		c1.059-0.191,2.174-0.055,3.584-0.055c-1.207,2.598-2.389,4.887-3.352,7.266c-4.908,12.137-9.804,24.282-14.599,36.463
		c-0.848,2.154-1.348,4.475-1.768,6.762c-0.254,1.412-0.91,2.039-2.238,2.191c-0.576,0.065-1.151,0.18-1.719,0.313
		c-1.271,0.302-1.945-0.049-2.43-1.407c-3.14-8.791-6.388-17.541-9.601-26.304C364.163,26.309,363.999,25.965,363.614,25.073z"/>
	<path fill="#FFFFFF" d="M131.758,24.778c11.486,1.365,15.018,12.699,11.137,20.242c-2.283,4.433-6.301,6.621-10.914,7.738
		c-2.311,0.559-4.729,0.828-7.107,0.879c-5.693,0.123-11.393,0.041-17.111,0.041c0-17.537,0-34.826,0-52.391
		c1.562,0,3.223-0.045,4.881,0.008c5.494,0.172,10.996,0.227,16.469,0.658c1.855,0.145,3.705,1.125,5.438,1.973
		c4.002,1.963,6.012,5.369,5.898,9.742c-0.121,4.549-2.336,8.016-6.469,10.121C133.256,24.157,132.498,24.45,131.758,24.778z
		 M114,27.194c-0.055,0.77-0.127,1.342-0.129,1.91c-0.008,5.451-0.016,10.9,0,16.351c0.006,2.918,0.99,4.435,3.854,4.608
		c4.17,0.256,8.416,0.351,12.551-0.131c4.586-0.533,6.865-3.158,7.469-7.678c0.229-1.717,0.17-3.512-0.027-5.238
		c-0.553-4.813-3.389-7.649-7.986-8.93C124.566,26.651,119.33,27.393,114,27.194z M113.871,15.592c0,2.396-0.047,4.797,0.039,7.191
		c0.02,0.484,0.574,1.375,0.85,1.361c4.57-0.207,9.207-0.141,13.682-0.947c3.844-0.695,5.691-3.574,5.891-7.238
		c0.23-4.227-0.668-7.918-4.92-9.877c-3.674-1.693-7.525-2.236-11.547-1.574c-2.977,0.49-3.916,1.453-3.984,4.475
		C113.83,11.186,113.871,13.389,113.871,15.592z"/>
	<path fill="#FFFFFF" d="M230.715,29.989c0,7.922,0,15.668,0,23.526c-2.094,0-4.268,0-6.402,0c0-17.381,0-34.672,0-52.344
		c2.869,0,5.832-0.096,8.787,0.023c4.195,0.168,8.469,0.057,12.553,0.859c5.121,1.008,9.33,3.754,10.607,9.334
		c1.252,5.482,0.102,10.436-4.469,13.98c-2.09,1.621-4.732,2.527-7.043,3.713c6.713,7.877,13.662,16.03,20.893,24.515
		c-2.783,0-5.268,0.067-7.742-0.06c-0.479-0.022-0.981-0.759-1.371-1.248c-4.151-5.238-8.264-10.506-12.43-15.729
		c-1.049-1.312-2.203-2.556-3.412-3.726C237.883,30.114,234.323,30.059,230.715,29.989z M230.516,27.129
		c4.631,0.256,9.014,0.129,13.285-1.105c2.955-0.857,5.26-2.598,6.121-5.705c0.832-3.02,0.678-6.043-0.516-8.965
		c-2.799-6.834-11.398-8.295-16.508-6.566c-1.498,0.51-2.353,1.691-2.363,3.252C230.488,14.329,230.516,20.618,230.516,27.129z"/>
	<path fill="#FFFFFF" d="M322.686,27.067c-0.364,11.109-4.459,20.021-14.68,25.027c-14.941,7.318-35.621-0.002-38.428-20.15
		c-1.721-12.337,3.631-23.675,13.83-28.931c14.881-7.664,35.783-0.52,38.824,19.33C322.479,23.936,322.547,25.557,322.686,27.067z
		 M274.52,24.141c0.504,9.74,4.726,18.318,11.769,23.091c9.422,6.386,21.453,4.531,27.44-4.235
		c2.396-3.504,3.164-7.476,3.267-11.627c0.281-11.725-5.658-21.711-15.438-25.959c-9.6-4.168-20.951-0.096-24.76,9.172
		C275.568,17.575,275.252,20.946,274.52,24.141z"/>
	<path fill="#FFFFFF" d="M0,0.932c7.107,0.33,14.24,0.045,21.152,1.133C30.4,3.522,34.809,12.27,31.178,20.596
		c-1.809,4.15-5.203,6.512-9.469,7.73c-0.549,0.158-1.111,0.287-1.617,0.418c7.014,8.227,13.975,16.389,21.211,24.875
		c-2.738,0-5.111,0.078-7.475-0.057c-0.557-0.031-1.182-0.687-1.594-1.199c-4.365-5.484-8.764-10.945-13.012-16.523
		c-3.264-4.287-7.422-6.303-12.889-5.744c0,7.738,0,15.488,0,23.385c-2.062,0-4.223,0-6.334,0C0,36.122,0,18.827,0,0.932z
		 M6.129,27.565c4.348-0.432,8.432-0.58,12.412-1.309c3.646-0.67,6.68-2.756,7.139-6.738c0.299-2.619,0.201-5.541-0.668-7.99
		c-2.514-7.1-11.389-8.484-16.52-6.723c-1.512,0.52-2.324,1.746-2.34,3.279C6.094,14.372,6.129,20.657,6.129,27.565z"/>
	<path fill="#FFFFFF" d="M57.195,1.329c-0.125,1.807-0.32,3.469-0.344,5.131c-0.135,9.211-0.326,18.422-0.285,27.631
		c0.021,4.871,0.826,9.656,4.793,13.104c5.443,4.732,11.736,5.048,18.059,2.462c6.293-2.576,8.859-7.996,8.877-14.521
		c0.029-10.77-0.203-21.539-0.322-32.309c-0.006-0.443,0-0.889,0-1.48c1.432,0,2.76,0,4.271,0c0.051,0.545,0.152,1.1,0.145,1.652
		c-0.092,9.928-0.156,19.855-0.332,29.781c-0.043,2.518-0.158,5.092-0.729,7.527c-1.74,7.438-6.408,12.077-13.914,13.832
		c-5.51,1.289-10.859,0.745-15.963-1.543c-7.494-3.365-10.916-9.525-11.1-17.513C50.095,23.993,50.044,12.897,49.915,1.8
		c0-0.113,0.098-0.23,0.207-0.473C52.309,1.329,54.553,1.329,57.195,1.329z"/>
	<path fill="#FFFFFF" d="M177.604,53.536c-2.312,0-4.363,0-6.424,0c0-2.47-0.021-4.843,0.006-7.216
		c0.061-4.993,0.199-9.989,0.166-14.983c-0.008-0.869-0.574-1.823-1.1-2.588c-5.928-8.6-11.9-17.172-17.854-25.754
		c-0.318-0.455-0.572-0.953-1.053-1.766c2.766,0,5.207-0.1,7.631,0.074c0.555,0.039,1.135,0.955,1.551,1.572
		c4.65,6.877,9.271,13.773,13.902,20.664c0.354,0.525,0.738,1.027,1.301,1.809c2.359-3.348,4.639-6.465,6.791-9.666
		c3-4.469,5.891-9.01,8.881-13.486c0.305-0.455,0.953-0.902,1.475-0.947c1.471-0.129,2.961-0.045,4.827-0.045
		c-0.498,0.777-0.801,1.301-1.155,1.789c-6.061,8.348-12.156,16.668-18.15,25.063c-0.689,0.965-1.129,2.344-1.125,3.529
		c0.016,6.615,0.205,13.229,0.33,19.842C177.615,52.07,177.604,52.711,177.604,53.536z"/>
</g>
</svg>
